<?xml version="1.0" standalone="no"?>
<!DOCTYPE svg PUBLIC "-//W3C//DTD SVG 20010904//EN"
 "http://www.w3.org/TR/2001/REC-SVG-20010904/DTD/svg10.dtd">
<svg version="1.0" xmlns="http://www.w3.org/2000/svg"
 width="1024.000000pt" height="1024.000000pt" viewBox="0 0 1024.000000 1024.000000"
 preserveAspectRatio="xMidYMid meet">

<g transform="translate(0.000000,1024.000000) scale(0.100000,-0.100000)"
fill="#000000" stroke="none">
<path d="M4955 10204 c-22 -2 -96 -9 -165 -14 -535 -46 -1058 -197 -1555 -450
-825 -419 -1359 -1004 -1616 -1770 -107 -320 -147 -584 -169 -1100 -16 -399
-34 -455 -355 -1115 -358 -738 -368 -761 -368 -872 0 -170 127 -304 363 -382
36 -11 131 -32 213 -45 81 -14 152 -28 157 -31 6 -4 10 -63 10 -138 0 -209 19
-616 35 -771 54 -508 242 -743 670 -838 115 -26 519 -35 811 -19 421 23 526
-23 579 -252 16 -71 38 -325 60 -701 16 -281 26 -327 80 -362 15 -10 52 -20
83 -22 70 -6 111 14 142 70 21 38 22 48 17 167 -11 245 -48 737 -63 844 -51
364 -233 531 -616 565 -56 5 -119 8 -138 6 -19 -2 -156 -8 -305 -14 -389 -17
-578 3 -732 76 -129 61 -196 151 -238 320 -43 167 -59 383 -81 1099 -7 230
-13 263 -54 285 -11 6 -98 15 -193 21 -259 14 -405 41 -453 83 -60 51 -49 79
291 736 207 401 263 521 311 667 70 215 91 352 105 686 16 407 42 588 125 869
166 562 557 1078 1079 1425 433 288 990 507 1515 597 369 63 684 77 1080 45
716 -56 1333 -286 1820 -675 116 -93 350 -329 441 -444 590 -747 812 -1578
678 -2533 -51 -366 -147 -676 -320 -1035 -115 -241 -199 -382 -435 -734 -117
-174 -237 -358 -268 -407 -221 -368 -317 -767 -288 -1201 15 -229 72 -541 137
-750 7 -25 30 -98 50 -162 51 -167 84 -208 166 -208 53 0 137 47 161 90 24 44
19 91 -22 215 -169 502 -216 1051 -121 1417 49 191 133 360 299 606 266 395
335 499 412 628 299 499 476 975 550 1478 45 306 51 700 15 1001 -68 564 -264
1081 -596 1570 -564 831 -1459 1342 -2559 1460 -136 15 -656 28 -745 19z"/>
<path d="M5103 9468 c-12 -6 -29 -29 -37 -52 -9 -23 -99 -374 -201 -781 -102
-407 -188 -747 -191 -756 -3 -12 -21 -19 -62 -23 -153 -18 -258 -49 -384 -113
l-86 -44 -264 218 c-394 326 -417 343 -441 343 -58 0 -94 -68 -61 -118 9 -15
136 -170 282 -345 l265 -318 -41 -87 c-50 -107 -68 -164 -85 -267 l-13 -80
-80 -23 c-123 -36 -1047 -287 -1164 -317 -58 -15 -115 -33 -127 -41 -47 -30
-35 -111 20 -134 12 -5 306 -75 652 -156 347 -80 711 -166 810 -190 l180 -44
98 -100 c53 -55 97 -102 97 -105 0 -6 -431 -509 -597 -697 -123 -139 -133
-156 -123 -204 13 -57 75 -88 124 -62 14 7 141 110 282 228 477 399 578 479
601 480 15 0 28 -10 37 -27 7 -16 55 -181 105 -368 50 -187 127 -475 171 -640
45 -165 105 -392 135 -505 59 -222 68 -239 133 -240 44 0 68 14 87 49 13 26
88 303 260 961 162 618 195 735 216 753 12 9 25 17 30 17 5 0 89 -67 186 -148
98 -81 257 -213 353 -292 96 -80 208 -173 249 -207 84 -70 115 -82 160 -59 36
19 51 44 51 84 0 31 -16 51 -465 581 -132 155 -241 288 -242 294 -2 7 39 55
90 108 l92 97 90 21 c50 11 191 45 315 74 124 30 446 107 715 172 270 65 501
122 514 127 34 12 50 37 51 76 0 41 -26 68 -82 82 -60 15 -263 70 -758 204
-234 63 -454 122 -490 131 -79 20 -90 29 -90 69 0 86 -62 266 -121 354 -29 43
-36 67 -21 74 4 2 82 91 173 198 401 477 384 454 368 498 -11 28 -50 46 -82
38 -14 -3 -164 -122 -335 -265 -170 -142 -315 -261 -320 -265 -6 -3 -45 10
-87 29 -107 48 -217 82 -316 95 -46 6 -88 15 -92 20 -5 4 -94 349 -198 766
-104 418 -194 771 -200 786 -21 51 -82 72 -136 46z m-277 -1957 c108 -54 197
-140 267 -259 27 -45 50 -82 51 -82 2 0 29 41 61 91 129 203 275 299 455 299
233 0 457 -198 501 -441 32 -182 -58 -393 -286 -669 -175 -213 -710 -720 -740
-702 -43 24 -330 286 -506 462 -350 349 -489 550 -521 753 -38 245 141 511
392 584 27 8 84 12 141 10 92 -2 102 -5 185 -46z"/>
</g>
</svg>
