<?xml version="1.0" standalone="no"?>
<!DOCTYPE svg PUBLIC "-//W3C//DTD SVG 20010904//EN"
 "http://www.w3.org/TR/2001/REC-SVG-20010904/DTD/svg10.dtd">
<svg version="1.0" xmlns="http://www.w3.org/2000/svg"
 width="361.000000pt" height="423.000000pt" viewBox="0 0 361.000000 423.000000"
 preserveAspectRatio="xMidYMid meet">

<g transform="translate(0.000000,423.000000) scale(0.100000,-0.100000)"
fill="#000000" stroke="none">
<path d="M1850 4000 c-14 -4 -53 -8 -86 -9 -34 -1 -78 -8 -97 -16 -20 -8 -51
-15 -69 -15 -39 -1 -114 -20 -145 -38 -12 -6 -29 -12 -37 -12 -9 0 -24 -4 -34
-10 -18 -11 -70 -32 -88 -35 -6 -2 -29 -15 -52 -29 -23 -14 -44 -26 -48 -26
-24 0 -209 -145 -299 -235 -119 -118 -198 -227 -270 -373 -84 -168 -107 -248
-126 -437 -10 -105 -26 -256 -35 -338 -6 -61 -27 -114 -118 -302 -113 -231
-126 -261 -126 -279 0 -10 -5 -26 -11 -38 -17 -31 -1 -85 37 -127 37 -42 114
-75 195 -87 34 -4 49 -12 57 -27 12 -26 22 -124 28 -302 11 -279 89 -391 305
-435 83 -18 118 -19 290 -13 l197 6 42 -39 42 -40 4 -109 c3 -61 10 -135 16
-165 7 -30 12 -68 12 -84 1 -23 7 -31 27 -36 31 -9 87 12 96 36 7 18 -21 291
-39 384 -15 76 -56 132 -120 164 -46 23 -64 26 -155 26 -57 0 -103 -4 -103 -8
0 -11 -190 -4 -265 9 -89 16 -160 67 -185 134 -20 53 -42 256 -45 431 -3 93
-7 178 -11 188 -6 15 -16 16 -84 10 -53 -4 -80 -3 -84 5 -4 6 -14 11 -23 11
-28 0 -84 32 -79 46 3 8 0 11 -10 7 -7 -3 -14 -3 -14 0 0 16 39 108 101 235
143 296 161 360 179 627 21 339 123 582 340 809 104 108 224 196 365 266 182
90 338 127 570 137 382 15 712 -111 960 -368 50 -52 109 -119 132 -150 47 -64
165 -286 182 -344 7 -22 17 -49 22 -60 22 -49 52 -295 51 -430 -1 -195 -23
-340 -72 -480 -50 -138 -186 -395 -282 -530 -76 -108 -144 -268 -156 -365 -15
-139 -2 -422 23 -471 8 -15 15 -39 15 -53 0 -14 4 -27 9 -30 4 -3 11 -29 15
-57 12 -90 80 -128 131 -73 30 32 30 27 4 100 -38 109 -70 268 -76 381 -5 93
-2 126 16 206 25 110 59 179 200 407 122 198 180 316 225 459 51 161 65 230
78 382 39 461 -121 929 -423 1231 -120 119 -393 288 -467 288 -8 0 -23 6 -31
14 -18 15 -137 46 -179 46 -15 0 -33 5 -40 12 -6 6 -44 13 -84 15 -194 9 -275
10 -298 3z"/>
<path d="M1883 3853 c9 -2 23 -2 30 0 6 3 -1 5 -18 5 -16 0 -22 -2 -12 -5z"/>
<path d="M1710 3830 c-21 -7 -21 -8 -5 -9 11 0 27 4 35 9 18 11 5 11 -30 0z"/>
<path d="M1590 3810 c-20 -6 -21 -8 -5 -8 11 0 34 4 50 8 27 7 27 8 5 8 -14 0
-36 -4 -50 -8z"/>
<path d="M1515 3790 c-13 -5 -14 -9 -5 -9 8 0 24 4 35 9 13 5 14 9 5 9 -8 0
-24 -4 -35 -9z"/>
<path d="M1453 3770 c-13 -5 -23 -11 -23 -14 0 -7 40 6 46 15 6 10 6 10 -23
-1z"/>
<path d="M1360 3729 c-19 -12 -66 -38 -105 -58 -72 -38 -178 -112 -171 -119 3
-2 30 15 61 38 31 23 90 59 131 81 96 51 142 79 129 79 -5 0 -26 -10 -45 -21z"/>
<path d="M1921 3611 c-11 -11 -23 -33 -27 -48 -31 -141 -61 -267 -89 -368 -9
-33 -24 -90 -33 -127 -10 -36 -21 -70 -25 -74 -4 -4 -38 -15 -75 -25 -37 -9
-74 -20 -82 -23 -15 -6 -95 48 -228 155 l-53 43 -24 -25 -25 -24 81 -95 c138
-164 134 -158 117 -178 -26 -29 -45 -75 -52 -124 -6 -40 -11 -48 -38 -57 -17
-6 -43 -11 -58 -11 -15 0 -44 -7 -65 -16 -21 -8 -49 -17 -64 -19 -43 -6 -124
-27 -158 -41 -17 -8 -44 -14 -59 -14 -50 0 -94 -22 -94 -47 0 -24 13 -29 150
-57 115 -24 461 -104 464 -108 73 -100 74 -107 34 -150 -7 -7 -36 -42 -63 -77
-28 -36 -61 -77 -75 -91 -14 -15 -47 -55 -74 -90 -47 -59 -48 -63 -31 -76 10
-8 25 -14 32 -14 7 0 89 65 181 145 92 79 172 145 179 145 22 0 65 -68 70
-112 3 -24 9 -47 13 -53 4 -5 13 -37 20 -70 7 -33 19 -72 26 -86 7 -15 18 -53
24 -85 24 -132 39 -201 54 -239 8 -22 15 -52 16 -66 0 -17 8 -29 24 -37 47
-21 54 -5 128 293 86 348 115 452 128 460 6 3 36 -16 67 -44 309 -266 330
-280 354 -228 15 33 16 30 -136 212 -162 193 -154 176 -116 224 29 37 38 41
139 65 283 66 410 95 444 101 45 8 69 33 62 62 -7 24 -42 36 -80 27 -18 -5
-29 -1 -38 11 -9 12 -28 19 -57 20 -24 1 -64 9 -89 17 -102 36 -158 50 -179
43 -11 -3 -21 -2 -21 3 0 6 -13 15 -30 21 -22 7 -30 16 -30 33 0 26 -36 128
-51 143 -16 16 -10 41 17 66 89 82 190 239 156 239 -5 0 -40 -26 -78 -57 -136
-114 -180 -144 -200 -136 -10 4 -54 14 -99 22 l-80 16 -17 70 c-10 39 -31 126
-48 195 -57 235 -90 354 -104 368 -12 12 -17 11 -35 -7z m-122 -781 c40 -20
86 -67 104 -107 6 -13 13 -23 17 -23 3 0 20 20 38 45 120 170 336 124 373 -80
15 -82 5 -129 -44 -205 -63 -98 -310 -340 -347 -340 -36 0 -293 247 -356 342
-52 77 -65 114 -65 179 0 82 49 165 116 195 44 20 120 17 164 -6z"/>
<path d="M1665 2826 c-32 -14 -61 -39 -85 -71 -8 -11 4 -3 26 17 21 21 57 44
79 52 22 8 33 15 25 15 -8 0 -28 -6 -45 -13z"/>
<path d="M2108 2823 c7 -3 16 -2 19 1 4 3 -2 6 -13 5 -11 0 -14 -3 -6 -6z"/>
<path d="M2004 2758 l-19 -23 23 19 c21 18 27 26 19 26 -2 0 -12 -10 -23 -22z"/>
<path d="M1541 2674 c0 -11 3 -14 6 -6 3 7 2 16 -1 19 -3 4 -6 -2 -5 -13z"/>
<path d="M1541 2594 c0 -11 3 -14 6 -6 3 7 2 16 -1 19 -3 4 -6 -2 -5 -13z"/>
<path d="M1039 3513 l-24 -28 28 24 c25 23 32 31 24 31 -2 0 -14 -12 -28 -27z"/>
<path d="M926 3398 c-25 -29 -46 -56 -46 -61 0 -5 12 6 27 25 15 18 38 45 52
61 13 15 22 27 19 27 -4 0 -27 -24 -52 -52z"/>
<path d="M846 3293 c-6 -14 -5 -15 5 -6 7 7 10 15 7 18 -3 3 -9 -2 -12 -12z"/>
<path d="M785 3199 c-4 -6 -5 -12 -2 -15 2 -3 7 2 10 11 7 17 1 20 -8 4z"/>
<path d="M752 3135 c-6 -14 -8 -25 -3 -25 8 0 23 41 17 47 -1 2 -8 -8 -14 -22z"/>
<path d="M726 3075 c-9 -26 -7 -32 5 -12 6 10 9 21 6 23 -2 3 -7 -2 -11 -11z"/>
<path d="M2594 3058 l-19 -23 23 19 c12 11 22 21 22 23 0 8 -8 2 -26 -19z"/>
<path d="M2549 3003 c-13 -16 -12 -17 4 -4 9 7 17 15 17 17 0 8 -8 3 -21 -13z"/>
<path d="M2499 2943 l-24 -28 28 24 c25 23 32 31 24 31 -2 0 -14 -12 -28 -27z"/>
<path d="M670 2909 c0 -5 5 -7 10 -4 6 3 10 8 10 11 0 2 -4 4 -10 4 -5 0 -10
-5 -10 -11z"/>
<path d="M2439 2873 l-24 -28 28 24 c25 23 32 31 24 31 -2 0 -14 -12 -28 -27z"/>
<path d="M652 2800 c0 -14 2 -19 5 -12 2 6 2 18 0 25 -3 6 -5 1 -5 -13z"/>
<path d="M622 2480 c0 -19 2 -27 5 -17 2 9 2 25 0 35 -3 9 -5 1 -5 -18z"/>
<path d="M2940 2443 c-14 -3 -29 -8 -34 -13 -5 -5 8 -5 29 0 20 4 39 11 42 14
7 6 4 6 -37 -1z"/>
<path d="M612 2400 c0 -14 2 -19 5 -12 2 6 2 18 0 25 -3 6 -5 1 -5 -13z"/>
<path d="M1058 2403 c7 -3 16 -2 19 1 4 3 -2 6 -13 5 -11 0 -14 -3 -6 -6z"/>
<path d="M2738 2393 c7 -3 16 -2 19 1 4 3 -2 6 -13 5 -11 0 -14 -3 -6 -6z"/>
<path d="M596 2344 c-4 -14 -5 -29 -2 -31 3 -3 8 7 12 21 3 15 4 29 1 32 -2 3
-8 -7 -11 -22z"/>
<path d="M2538 2343 c7 -3 16 -2 19 1 4 3 -2 6 -13 5 -11 0 -14 -3 -6 -6z"/>
<path d="M2408 2313 c-21 -8 -38 -20 -38 -25 0 -7 4 -7 13 0 6 5 28 17 47 25
19 9 31 16 25 16 -5 0 -27 -7 -47 -16z"/>
<path d="M3361 2154 c0 -11 3 -14 6 -6 3 7 2 16 -1 19 -3 4 -6 -2 -5 -13z"/>
<path d="M505 2120 c-3 -5 -1 -10 4 -10 6 0 11 5 11 10 0 6 -2 10 -4 10 -3 0
-8 -4 -11 -10z"/>
<path d="M2175 2089 c-4 -6 -5 -12 -2 -15 2 -3 7 2 10 11 7 17 1 20 -8 4z"/>
<path d="M1609 2053 l-24 -26 33 23 c33 25 38 30 24 30 -5 0 -19 -12 -33 -27z"/>
<path d="M3331 2053 c-1 -6 -4 -20 -7 -30 -5 -17 -5 -17 6 0 6 10 9 23 6 30
-3 9 -5 9 -5 0z"/>
<path d="M455 2009 c-4 -6 -5 -12 -2 -15 2 -3 7 2 10 11 7 17 1 20 -8 4z"/>
<path d="M1514 1972 c-22 -20 -67 -61 -100 -89 -32 -29 -56 -53 -52 -53 9 0
192 160 196 172 6 14 -1 9 -44 -30z"/>
<path d="M3306 1975 c-9 -26 -7 -32 5 -12 6 10 9 21 6 23 -2 3 -7 -2 -11 -11z"/>
<path d="M2136 1965 c-9 -26 -7 -32 5 -12 6 10 9 21 6 23 -2 3 -7 -2 -11 -11z"/>
<path d="M3280 1899 c-7 -11 -10 -23 -7 -25 2 -2 9 7 15 21 14 30 7 33 -8 4z"/>
<path d="M380 1850 c-6 -11 -8 -20 -6 -20 3 0 10 9 16 20 6 11 8 20 6 20 -3 0
-10 -9 -16 -20z"/>
<path d="M3222 1773 c-24 -47 -41 -87 -39 -90 3 -2 23 35 47 82 23 48 40 88
38 90 -2 3 -23 -34 -46 -82z"/>
<path d="M2590 1825 c-8 -9 -8 -15 -2 -15 12 0 26 19 19 26 -2 2 -10 -2 -17
-11z"/>
<path d="M2061 1664 c0 -11 3 -14 6 -6 3 7 2 16 -1 19 -3 4 -6 -2 -5 -13z"/>
<path d="M3165 1659 c-4 -6 -5 -12 -2 -15 2 -3 7 2 10 11 7 17 1 20 -8 4z"/>
<path d="M3116 1588 c-53 -86 -67 -110 -63 -114 3 -3 17 17 32 43 16 26 35 58
43 71 8 12 12 22 8 22 -3 0 -12 -10 -20 -22z"/>
<path d="M2041 1584 c0 -11 3 -14 6 -6 3 7 2 16 -1 19 -3 4 -6 -2 -5 -13z"/>
<path d="M3017 1423 c-31 -50 -49 -83 -44 -83 3 0 21 27 40 60 39 65 42 83 4
23z"/>
<path d="M2933 1274 c-14 -30 -23 -57 -21 -60 3 -2 16 23 31 56 32 76 25 79
-10 4z"/>
<path d="M2884 980 c0 -80 2 -112 3 -72 2 39 2 105 0 145 -1 39 -3 7 -3 -73z"/>
<path d="M1548 349 c-15 -16 -23 -29 -18 -29 11 0 50 41 50 52 0 11 -1 10 -32
-23z"/>
</g>
</svg>
